<?xml version="1.0" encoding="utf-8"?>
<!-- Generator: Adobe Illustrator 23.1.1, SVG Export Plug-In . SVG Version: 6.00 Build 0)  -->
<svg version="1.1" id="Layer_1" xmlns="http://www.w3.org/2000/svg" xmlns:xlink="http://www.w3.org/1999/xlink" x="0px" y="0px"
	 viewBox="0 0 87.5 64.5" style="enable-background:new 0 0 87.5 64.5;" xml:space="preserve">
<style type="text/css">
	.st0{fill:#FAD018;}
	.st1{fill:#343434;}
	.st2{fill:none;}
	.st3{fill:#FDD219;stroke:#FDD219;stroke-width:0.7508;stroke-miterlimit:10;}
</style>
<title>Sweet Mustard logo 2019</title>
<path class="st0" d="M14.1,16.5h11.2c6.2,0,11.2,5,11.2,11.2c0,0,0,0,0,0v11.2H25.3c-6.2,0-11.2-5-11.2-11.2V16.5z"/>
<path class="st1" d="M38.5,23.1c0-8.7,7.1-15.8,15.8-15.8h15.8v15.8c0,8.7-7.1,15.8-15.8,15.8H38.5V23.1z"/>
<rect x="4.4" y="49.2" class="st2" width="78.8" height="8.2"/>
<g>
	<path class="st1" d="M8.3,53.1c-0.4-0.3-0.9-0.5-1.4-0.5c-0.6,0-1,0.2-1,0.6c0,0.4,0.3,0.6,1,0.6c1,0.1,2.4,0.3,2.4,1.8
		c0,1-0.8,1.8-2.4,1.8c-1,0.1-1.9-0.3-2.6-1l0.7-1c0.5,0.5,1.2,0.7,1.9,0.8c0.5,0,1-0.3,1-0.7c0-0.4-0.3-0.5-1.1-0.6
		c-1-0.1-2.3-0.5-2.3-1.7c0-1.3,1.3-1.7,2.3-1.7c0.8-0.1,1.6,0.2,2.1,0.7L8.3,53.1z"/>
	<path class="st1" d="M15.3,51.6l1.2,4.2l1.3-4.2h1.5l-1.9,5.6h-1.6l-0.6-1.6l-0.5-1.9l-0.5,1.9l-0.6,1.6H12l-1.9-5.6h1.5l1.3,4.2
		l1.2-4.2H15.3z"/>
	<path class="st1" d="M21.6,54.9c0.1,0.8,0.9,1.3,1.6,1.2c0.5,0,1.1-0.2,1.5-0.5l0.9,0.9c-0.6,0.6-1.5,0.9-2.4,0.9
		c-1.6,0.1-3-1.2-3-2.8c-0.1-1.6,1.2-3,2.8-3c0,0,0.1,0,0.1,0c1.8,0,3,1.1,2.8,3.4L21.6,54.9L21.6,54.9z M24.5,53.8
		c-0.1-0.7-0.7-1.2-1.4-1.1c0,0,0,0,0,0c-0.7-0.1-1.4,0.4-1.5,1.1H24.5z"/>
	<path class="st1" d="M28.1,54.9c0.1,0.8,0.9,1.3,1.6,1.2c0.5,0,1.1-0.2,1.5-0.5l0.9,0.9c-0.6,0.6-1.5,0.9-2.4,0.9
		c-1.6,0.1-3-1.2-3-2.8c-0.1-1.6,1.2-3,2.8-3c0,0,0.1,0,0.1,0c1.8,0,3,1.1,2.8,3.4L28.1,54.9L28.1,54.9z M31.1,53.8
		c-0.1-0.7-0.7-1.2-1.4-1.1c0,0,0,0,0,0c-0.7-0.1-1.4,0.4-1.5,1.1H31.1z"/>
	<path class="st1" d="M35.1,50.1v1.6h1.5v1.2h-1.5v2.4c-0.1,0.4,0.2,0.7,0.6,0.8c0,0,0.1,0,0.1,0c0.2,0,0.5-0.1,0.7-0.2l0.4,1.2
		c-0.4,0.2-0.7,0.2-1.1,0.2c-1,0.1-1.9-0.6-2-1.6c0-0.2,0-0.3,0-0.5v-2.4h-1v-1.2h1v-1.4L35.1,50.1z"/>
	<path class="st3" d="M48.3,57.2v-3.3c0.1-0.9-0.7-1.8-1.6-1.8c-0.1,0-0.1,0-0.2,0c-1,0-1.8,0.7-1.8,1.7c0,0,0,0.1,0,0.1v3.3h-0.5
		v-3.3c0-1-0.7-1.8-1.7-1.8c-1,0-1.8,0.7-1.8,1.7c0,0,0,0.1,0,0.1v3.3h-0.5v-5.5h0.5l0,0.9c0.4-0.7,1.1-1.1,1.8-1
		c0.9-0.1,1.8,0.5,2,1.4c0.3-0.8,1.1-1.4,2-1.4c1.2-0.1,2.3,0.9,2.3,2.1c0,0.1,0,0.1,0,0.2v3.3H48.3z"/>
	<path class="st3" d="M54.6,57.2v-1c-0.4,0.7-1.2,1.1-2,1.1c-1.3,0.1-2.4-0.8-2.5-2.1c0-0.1,0-0.2,0-0.3v-3.2h0.5v3.2
		c-0.1,1,0.6,1.8,1.6,1.9c0.1,0,0.2,0,0.4,0c1.1,0,1.9-0.8,1.9-1.9c0,0,0-0.1,0-0.1v-3.1h0.5v5.6L54.6,57.2z"/>
	<path class="st3" d="M60.4,52.6c-0.5-0.4-1.1-0.6-1.7-0.6c-0.9,0-1.7,0.3-1.7,1c0,0.7,1,0.9,1.7,1c1,0.2,2.3,0.3,2.3,1.6
		c0,1.2-1.3,1.5-2.3,1.5c-0.9,0.1-1.8-0.4-2.4-1.1l0.4-0.4c0.5,0.6,1.2,1,2,0.9c0.7,0,1.7-0.2,1.7-1.1c0-0.8-0.9-1-1.8-1.1
		c-1.1-0.2-2.1-0.4-2.1-1.5c0-1.1,1.1-1.6,2.2-1.5c0.8,0,1.5,0.2,2.1,0.7L60.4,52.6z"/>
	<path class="st3" d="M63.4,50v1.7h1.9v0.5h-1.9v3.4c0,0.8,0.2,1.3,1,1.3c0.3,0,0.6-0.1,0.8-0.2l0.2,0.4c-0.3,0.2-0.7,0.3-1,0.3
		c-1.2,0-1.6-0.7-1.6-1.8v-3.4h-1.2v-0.5h1.2V50L63.4,50z"/>
	<path class="st3" d="M71.9,51.6v5.5h-0.5V56c-0.5,0.8-1.3,1.3-2.3,1.3c-1.6,0-2.8-1.3-2.8-2.9c0-1.5,1.3-2.8,2.8-2.8
		c0.9,0,1.8,0.5,2.3,1.3v-1.2L71.9,51.6z M66.8,54.4c-0.1,1.2,0.9,2.3,2.1,2.3c0,0,0.1,0,0.1,0c1.3,0,2.3-1,2.3-2.3
		c0-1.3-1-2.3-2.3-2.3c-1.2,0-2.2,0.9-2.3,2.2C66.8,54.3,66.8,54.3,66.8,54.4z"/>
	<path class="st3" d="M73.9,51.6l0,1c0.4-0.7,1.1-1.1,1.8-1c0.4,0,0.8,0.1,1.2,0.3l-0.2,0.4c-0.3-0.2-0.6-0.3-0.9-0.3
		c-1,0-1.8,0.8-1.8,1.8v3.2h-0.5v-5.5H73.9z"/>
	<path class="st3" d="M83,49.3v7.9h-0.5v-1.2c-0.5,0.8-1.4,1.3-2.3,1.3c-1.6-0.1-2.8-1.4-2.8-3c0.1-1.5,1.3-2.7,2.8-2.8
		c1,0,1.8,0.5,2.3,1.3v-3.5H83z M78,54.4c-0.1,1.2,0.8,2.2,2,2.3c0.1,0,0.2,0,0.3,0c1.3,0,2.3-1.1,2.3-2.4c0-1.2-1-2.2-2.3-2.3
		C79,52,78,52.9,78,54.1C78,54.2,78,54.3,78,54.4z"/>
</g>
</svg>
